#N canvas 457 35 615 692 10;
#X obj 330 108 text define meta;
#X msg 330 84 read \$1;
#X obj 17 117 text get meta;
#X obj 17 137 list trim;
#X obj 17 31 t b b;
#X obj 17 51 until;
#X obj 17 71 f;
#X msg 56 50 0;
#X obj 17 91 t a a;
#X obj 57 78 + 1;
#X obj 124 88 sel 2;
#X obj 17 180 route #N;
#X obj 17 200 route canvas;
#X obj 17 220 list split 4;
#X obj 51 240 list trim;
#X obj 51 260 route META;
#X msg 51 286 1;
#X obj 135 330 spigot;
#X obj 17 158 t a a a, f 40;
#X obj 254 178 route #X;
#X obj 254 198 route restore;
#X obj 254 218 list split 2;
#X obj 288 238 list trim;
#X obj 288 258 route pd;
#X obj 288 278 route META;
#X msg 288 298 0;
#X obj 135 473 route #X;
#X obj 135 493 route text;
#X obj 135 513 list split 2;
#X obj 253 400 route #N;
#X obj 253 420 route canvas;
#X obj 253 440 list split 4;
#X obj 287 460 list trim;
#X obj 135 376 t a a a, f 40;
#X obj 372 396 route #X;
#X obj 372 416 route restore;
#X obj 372 436 list split 2;
#X obj 406 456 list trim;
#X obj 406 476 route pd;
#X obj 287 480 route OBJECTS;
#X obj 406 496 route OBJECTS;
#X obj 169 536 list prepend;
#X msg 287 506 OBJECTS;
#X msg 406 516 META;
#X obj 169 576 route META OBJECTS;
#X obj 169 556 list trim;
#X obj 169 627 print META;
#X obj 221 602 print -n;
#X obj 17 6 bng 15 250 50 0 empty empty empty 17 7 0 10 -262144 -1
-1;
#X obj 291 23 r METAFILE;
#X obj 291 43 list;
#X obj 291 63 t b b a;
#X obj 390 24 bng 15 250 50 0 empty empty empty 17 7 0 10 -262144 -1
-1;
#X obj 390 44 openpanel;
#X obj 291 123 s pd;
#X msg 291 101 quit;
#X connect 1 0 0 0;
#X connect 2 0 3 0;
#X connect 2 1 10 0;
#X connect 3 0 18 0;
#X connect 4 0 5 0;
#X connect 4 1 7 0;
#X connect 5 0 6 0;
#X connect 6 0 8 0;
#X connect 7 0 6 1;
#X connect 8 0 2 0;
#X connect 8 1 9 0;
#X connect 9 0 6 1;
#X connect 10 0 5 1;
#X connect 11 0 12 0;
#X connect 12 0 13 0;
#X connect 13 1 14 0;
#X connect 14 0 15 0;
#X connect 15 0 16 0;
#X connect 16 0 17 1;
#X connect 17 0 33 0;
#X connect 18 0 11 0;
#X connect 18 1 17 0;
#X connect 18 2 19 0;
#X connect 19 0 20 0;
#X connect 20 0 21 0;
#X connect 21 1 22 0;
#X connect 22 0 23 0;
#X connect 23 0 24 0;
#X connect 24 0 25 0;
#X connect 25 0 17 1;
#X connect 26 0 27 0;
#X connect 27 0 28 0;
#X connect 28 1 41 0;
#X connect 29 0 30 0;
#X connect 30 0 31 0;
#X connect 31 1 32 0;
#X connect 32 0 39 0;
#X connect 33 0 26 0;
#X connect 33 1 29 0;
#X connect 33 2 34 0;
#X connect 34 0 35 0;
#X connect 35 0 36 0;
#X connect 36 1 37 0;
#X connect 37 0 38 0;
#X connect 38 0 40 0;
#X connect 39 0 42 0;
#X connect 40 0 43 0;
#X connect 41 0 45 0;
#X connect 42 0 41 1;
#X connect 43 0 41 1;
#X connect 44 1 47 0;
#X connect 45 0 44 0;
#X connect 48 0 4 0;
#X connect 49 0 50 0;
#X connect 50 0 51 0;
#X connect 51 0 55 0;
#X connect 51 1 4 0;
#X connect 51 2 1 0;
#X connect 52 0 53 0;
#X connect 53 0 1 0;
#X connect 55 0 54 0;
